<svg xmlns="http://www.w3.org/2000/svg" width="9270.613" height="1817.571" viewBox="0 0 9270.613 1817.571"><g transform="translate(-0.004 -0.028)"><path d="M402.995,855.9c-10.123.831-20.25,1.757-30.414,2.481-1.139.081-2.24.161-3.406.161-.027,2.226-.027,4.4-.094,6.585-1.42,81.25-5.538,162.206-7.964,243.348-2.671,90.275-9.025,191.333-86.092,238-54.592,33-138.2,34.518-193.21,1.783C13.01,1307.38-6.234,1221.6,1.665,1161.519c4.024-31.365,17.434-53.037,49.818-57.031,20.826-2.469,39.17-2.656,53.089,5.82,19.605,11.935,26.686,44.48,34.289,65.546l1.877,4.6,1.9,4.077,1.865,3.353,1.984,2.936,1.984,2.373,2.294,2.106c11.854,8.958,33.108,14.524,46.5,4.975l1.436-1.381,1.849-2.185,2-2.855c27.17-60.224,18.773-152.014,22.528-216.235-.067-40.364-1.153-80.581-3.726-120.783a18.152,18.152,0,0,1-.12-2.306,6.774,6.774,0,0,0-1.261-.081c-25.666-1.475-51.266-2.656-76.879-4.158-40.162-17.016-31.928-94.887,10.527-103.51,79.1,2.414,158.384,2.308,237.557,4.571,37.44,11.118,36.34,79.346,11.815,104.544ZM8584.046,737.58l10.862-.133h21.764l10.917-.12,21.793-.067,10.833.067h10.89l10.9.12H8692.9l21.819.255,10.835.188,11.05.175,26.176,2.118,25.155,5.391,23.763,8.342,22.475,10.876,21.054,13.437,19.552,15.663,17.929,17.726,16.429,19.3,14.536,21.107,12.859,22.154,10.956,23.307,9.1,24.123,7.066,24.7,5.028,25.1,2.91,25.211.712,25.037.736,16.267.269,16.2-.269,16.159-.9,15.957-1.395,15.784-2.065,15.649-2.573,15.41-3.191,15.153-3.781,14.884-4.333,14.537-4.933,14.241-5.513,13.892-6.168,13.437-6.758,13.047-7.335,12.684-8.007,12.11-8.608,11.692-9.266,11.09-9.9,10.527-10.472,9.976-11.169,9.374-11.748,8.65-12.46,8.046-13.1,7.321-13.731,6.625-14.39,5.779-15.047,4.989-15.66,4.263-16.388,3.34-17.071,2.587-17.676,1.557-18.3.737L8392.14,1367.4l3.605-94.032,37.038-2.532,9.816-1.824,8.152-3.245,6.224-5.108,4.075-7.415,1.637-10.862,5.337-364.333-2.239-14-6.1-10.166-9.468-7.24-11.8-4.828-13.185-2.91-39.678-4.144v-97.5l35.307.5,10.821.133,10.917.069,10.848.053h43.543l10.835-.053,10.889-.069h10.9l21.75-.133,10.916-.12h10.9l10.861-.055Zm88.131,236.255.041,14.014.241,41.837.094,14,.12,13.892.147,28.014.066,13.945.294,41.88.041,14.67.455,65.493,3.971,1.422,6.437,1.474,7.188.818h7.912l8.406-.871,8.783-1.771,8.878-2.561,8.877-3.528,8.6-4.263,8.031-4.869,7.375-5.418,6.543-5.793,5.915-6.262,2.883-3.769,3.138-4.318,2.764-4.761,2.643-5.069,2.467-5.405,2.32-5.86,2.053-6.262,1.93-6.625,1.7-6.905,1.582-7.3,1.34-7.683,1.182-7.911.884-8.166.859-8.409.657-8.621.578-8.6.361-9.521.174-9.4V1055.8l-.174-9.36-.361-9.413-.644-9.388-.831-9.238-1.033-9.307-1.164-9.186-1.423-9.266-1.6-9.4-1.932-9.158-2.092-9.215-2.308-9.264-2.413-9.227-1.9-6.342-3.621-8.462-4.425-8.032-4.976-7.187-5.482-6.6-6.25-5.887-7.173-5.566-8.127-5.122-9.252-4.734-10.568-4.25-11.961-3.836-13.235-3.165-14.646-2.506-10.968-1.208.015,4.614.294,41.837.014,14.014.106,13.865.2,28.014Zm-887.3,351.19-.712,44.763-42.51.188-15.8.12h-15.77l-15.837.067h-15.932l-15.863.055-15.892.067-16.012.069h-16.065l-16.01.027-16.012.053-16.051.12h-32.13l-16.012.069-16.091.053-16.051.067h-16.079l-16.053.069-16.051.067h-16.012l-15.984.053h-16l-15.917.055-15.946.135h-31.727l-15.771.188h-15.7l-15.783.053-45.957.055,1.032-40.349.243-8.838.188-8.958.872-34.463,37.011-7.617,10.27-3.1,9.172-4.011,7.885-5.122,6.342-6.516,4.56-7.658.188-10.339.107-11.009.08-10.89.148-10.888.082-10.888.067-10.809.161-10.835.026-10.633.053-10.715.069-10.741v-10.594l.092-10.648.041-10.58.055-10.688.067-10.513.054-10.66V1062.8l.082-21.189.039-10.566.094-10.743v-10.594l.055-10.7.106-10.782V977.5l.082-10.727.173-10.755.082-10.9.055-10.931.146-10.954.092-11.009.2-10.823-1.7-12.751-5.029-10.527-7.738-8.77-9.936-7.107-11.56-5.618-12.523-4.038-27.543-5.579.468-98.348,335.194-.135v92.609l-41.129,8.729-13.1,4.759-11.651,7.054-9.2,9.562-6.167,12.712-2.094,16.573.188,19.981.188,19.793.055,19.31.094,18.989v37.44l-.094,18.544v18.426l-.055,18.383-.041,18.505v18.585l.041,18.746.055,19.083.094,19.35.159,19.726.3,20.169.041,10.513.026,9.589.549,8.742,1.463,7.6,2.656,6.424,4.251,5.217,6.489,4.251,9.374,3.191,21.269,4.236,19.9,2.506,18.438.818,17.2-.926,15.81-2.575,14.831-4.3,13.694-5.793,12.806-7.375,11.921-9.011,11.251-10.527,10.582-12.07,9.976-13.61,9.454-15.126,9.117-16.547,8.729-18.118,9.187-21.214,21.481-.63,35.913-1.165-.524,41.959-.133,12.727-.161,12.858-.106,12.808-.067,12.821-.146,12.792-.108,12.927-.092,13.076-.256,25.411-.173,12.674-.147,12.7-.107,12.619Zm341.8-223.783-.173,36.152-.082,12.056-.133,24.123-.082,12-.069,12.123-.146,35.926,1.757,11.68,4.962,9.013,7.629,7.173,9.857,5.5,11.358,3.957,39.372,8.154.36,31.808.229,10.89.216,10.848.79,35.483h-334.8l.257-37.064.026-11.506.066-11.546.364-35.522,43.421-3.005,13.516-2.171,11.95-3.8,9.307-5.86,5.953-8.1,2.185-11.5-.255-11.815-.2-12.1-.161-12.19-.188-12.109-.2-12.123-.146-12.123-.187-12.176-.2-12.123-.173-12.07-.2-12.188-.174-12.07-.2-12.137-.214-12.054-.51-36.489-.175-12.068-.2-12.11-.187-12.188-.2-12.082-.161-12.123-.551-36.421-.2-12.137-.175-12.11-1.1-70.47-12.243-1.073-13.115.39-12.11,1.8-11.035,3.1-10.1,4.387-9.333,5.5-8.609,6.438-7.966,7.5-7.5,8.354-6.986,9.078-6.624,9.656-6.356,10.178-6.1,10.66L7824.7,939.5l-12.767,23.682-21.295.551-35.752,1.114V748.722l37.375-.5,17.365-.2,17.377-.241,17.419-.188,52.179-.671,17.435-.147,17.392-.174,17.365-.257,17.365-.188,17.447-.243,52.166-.669,17.418-.188,17.365-.243,17.406-.255,17.406-.257,17.394-.159,52.137-.684,17.406-.243,52.218-.591,72.091-.845.857,42.361.335,13.639.377,13.825.455,13.88.349,13.961.441,13.931.4,14.028.4,13.933.39,13.8.375,13.853.4,13.678.859,42.455h-55.69l-14.818-26.376-6.559-11.88-6.3-11.506-6.236-10.646-6.289-10.086-6.613-9.333-6.864-8.356-7.389-7.428-8.1-6.316-8.811-5.31-9.855-4.2-11.063-2.8-12.35-1.649-13.881-.12-13.343,1.234-.012,9.654-.055,12.07-.2,24.07v12.109l-.082,12.055-.133,24.111-.094,12.068-.092,12.055-.094,24.1-.133,12.123-.146,36.113-.094,12.125-.082,12.054-.092,24.06-.108,12.123Zm1041.934,43.219,20.49,2.079,19.148,5.953,17.379,9.4,15.1,12.486,12.405,15.1,9.4,17.339,5.994,19.136,2.092,20.438-2.092,20.544-5.994,19.108-9.4,17.434-12.405,15.112-15.1,12.472-17.379,9.305L9189.1,1346.4l-20.49,2-20.5-2-19.122-6.036-17.392-9.305-15.112-12.472-12.444-15.112-9.387-17.434-5.98-19.108-1.958-20.544,1.958-20.438,5.98-19.136,9.387-17.339,12.444-15.1,15.112-12.486,17.392-9.4,19.1-5.953ZM2279.94,643.548l5.779,3.167,5.766,2.908,5.916,2.575,5.832,2.253,6.007,1.959,6.075,1.757,6.169,1.408,6.1,1.22,6.075.953,6.181.737,6.169.43,6.168.188,6.075-.053,6.142-.308,6.1-.616,5.405-.8,11.559-1.824,11.572-2.01,11.5-2.065,11.478-2.279,11.427-2.52,11.5-2.563,11.372-2.72,11.384-2.9,11.386-2.963,11.4-3.1L2501.8,633.1l11.317-3.475,11.331-3.553,11.278-3.661,11.3-3.755,11.184-3.983,11.251-3.955,11.266-4.144,11.17-4.226,11.129-4.318,11.17-4.52,11.117-4.571,11.225-4.707,11.1-4.746,11.062-4.84,11.129-5.07,11.078-5.069,10.982-5.15,11.09-5.31L2714,548.679l11.037-5.418,12.068-6.169,15.167-9.052,13.933-9.078,13.343-9.44,12.712-9.682,12.042-9.99,11.49-10.284,10.876-10.582L2836.94,458.2l9.613-11.1,9-11.317,8.421-11.453,7.764-11.692,7.081-11.747,6.5-12.068,5.9-12.055,5.256-12.284,4.654-12.364,3.969-12.431,3.352-12.551,2.736-12.592L2913.31,302l1.475-12.619.844-12.539.229-12.6-.4-12.458-1.033-12.445-1.676-12.349-2.253-12.243-2.9-12.07-3.46-11.935-4.116-11.68-4.7-11.652-6.075-12.913-6.638-12.217-7.228-11.692-7.819-11.1-8.26-10.594-8.756-9.843-9.186-9.213-9.615-8.715-9.949-8.032-10.246-7.564-10.594-6.865-10.835-6.383L2779.116,46.3,2767.864,40.9l-11.453-4.883L2744.8,31.516l-11.733-4.157-11.827-3.648-11.894-3.406-11.976-2.91-12.056-2.761-12.11-2.428-12.082-2.051L2649.038,8.37l-12.123-1.661-12.07-1.381-12.027-1.22L2600.855,3.06,2589.03,2.3l-11.8-.684-11.641-.6-11.56-.443-6.878-.174-6.919-.2-6.893-.055L2526.4.028h-13.961l-6.96.106-6.946.135-6.987.174-7.027.188-6.987.308-7.04.257-7.026.349-7.027.375-7,.43-7.121.416-7.067.468-7.107.565-7,.6-7.107.551-7.068.684-7.16.669-7.148.643-7.121.753-7.148.776-7.121.818-7.148.79-7.187.818-7.148.926-7.2.926-7.121.871-7.67,1.006-16.079,2.573-15.743,2.722-15.689,2.736L2264.666,25.6l-15.488,3.11L2233.65,31.93l-15.41,3.354-15.367,3.579-15.314,3.661L2172.3,46.293l-15.153,3.957-15.153,4.157-15.086,4.25-15.032,4.52-14.938,4.571-14.886,4.693-14.857,4.909-14.739,5.07L2037.8,87.665,2023.1,93l-14.577,5.552-14.441,5.713-14.469,5.913-14.39,5.952-14.282,6.236-14.253,6.33-14.175,6.558-14.066,6.718L1894.4,148.84l-13.959,7.079-13.88,7.189-13.839,7.415-27.237,15.153-26.954,15.769-26.511,16.334-26.1,16.882L1720.3,252.173l-25.276,17.983-24.743,18.573-24.311,19.042-23.721,19.618-23.2,20.209-22.729,20.664-22.113,21.307-21.548,21.805-20.921,22.274-20.263,22.97-19.713,23.307-19.016,24.058-18.25,24.486-17.62,24.9-16.91,25.533-16.159,26.056-15.286,26.606-14.616,26.98-13.812,27.639-12.9,28.066L1315.058,742.9l-11.239,29.019-10.339,29.516-9.44,30.1-8.529,30.52-7.589,30.99-6.88,32.72-2.253,21.4-1.649,19.86-1.114,19.793-.684,19.618-.133,19.485.321,19.3.765,19.31,1.369,19.044,1.8,18.869,2.332,18.826,2.789,18.72,3.34,18.506,3.767,18.385,4.332,18.2,4.787,18.089,5.216,17.889,5.86,17.861,6.264,17.526,6.758,17.539,7.2,17.245,7.832,17.152,8.26,16.91,8.729,16.828,9.172,16.63,9.762,16.506,10.191,16.267,10.662,16.12,11.156,15.945,11.586,15.8,12.162,15.583,12.62,15.459,14.092,16.63,13.331,12.243,11.988,10.835,12.176,10.768,12.243,10.674,12.431,10.46,12.619,10.472,12.727,10.245,12.9,10.164,13.008,9.978,13.247,9.882,13.423,9.723,13.492,9.509,13.853,9.454,13.892,9.305,14.133,9.093,14.308,8.889,14.522,8.729,14.7,8.664,14.9,8.407,15.1,8.166,15.355,8.1,15.528,7.856,15.771,7.6,15.969,7.428,16.185,7.309,16.455,6.987,16.667,6.744,16.869,6.664,17.206,6.383,17.406,6.169,17.647,5.9,17.875,5.754,15.918,4.707,15.984,4.451,16.038,4.265,16.038,3.887,16.01,3.608,16.132,3.259,16.038,3.151,16.157,2.736,16.12,2.414,16.157,2.146,16.2,1.89,16.171,1.649,16.24,1.247,16.2,1.033,16.2.859,16.239.441,16.24.243,16.253-.055,16.306-.375,16.2-.537,16.294-.927,16.265-1.151,16.267-1.4,16.267-1.716,16.241-1.891,16.279-2.253,16.253-2.426,16.253-2.722,16.2-2.965,16.267-3.2,16.2-3.539,16.12-3.769,8.18-1.931,8.154-2.106,8.06-2.053,7.979-2.2,7.911-2.253,7.871-2.253,7.752-2.322,7.709-2.534,7.617-2.506,7.577-2.575,7.509-2.655,7.429-2.763,7.361-2.736,7.362-3.028,7.214-3.03,7.148-3.071,7.122-3.165,7.054-3.273,7-3.406,6.893-3.418,6.852-3.581,6.813-3.714,6.758-3.794,6.6-3.877,6.532-3.969,6.584-4.144,6.464-4.212,6.328-4.373,6.291-4.4,6.221-4.56,6.169-4.707,6.062-4.667,7.964-6.6,7.966-6.866,8.021-7.683,7.723-8.838,7.24-10.084,6.209-11.641,4.881-12.794,3.355-14,1.114-10.485-.455-10.9-2.267-10.7-4.359-10.2-6.075-9.16-7.458-7.6-8.232-5.928-8.637-4.359-8.823-3.005-8.636-1.757-8.664-.857-8.595.053-8.435.738-8.407,1.5-8.26,2.226-7.7,2.669-5.443,2.333-4.828,2.038-4.761,2.157-4.707,2.308-4.585,2.238-4.52,2.455-4.451,2.294-4.412,2.5-4.332,2.575-4.263,2.481-4.211,2.628-4.144,2.561-4.01,2.616-4.077,2.681-3.9,2.628-3.781,2.469-11.17,7.5-10.876,7-10.848,6.6-10.9,6.37-10.741,5.928-10.756,5.659-10.77,5.3-10.687,5-10.715,4.667-10.674,4.4-10.621,4.075-10.633,3.889-10.7,3.539-10.608,3.285-10.54,3.071-10.633,2.708-10.647,2.5-10.594,2.267L2327.9,1663.9l-10.7,1.771-10.608,1.555-10.686,1.422-10.7,1.1-10.768.9-10.77.6-10.795.565-10.807.294-10.876.133-10.876-.053-10.98-.322-10.97-.43-10.982-.6-15.877-1.086-15.61-1.475-15.541-1.7-15.449-1.946-15.22-2.306-15.125-2.508-15.073-2.789-14.859-3.165-14.739-3.473-14.629-3.7-14.537-4.022-14.363-4.319-14.176-4.652-14.106-4.934-13.974-5.163-13.757-5.552-13.745-5.806-13.531-6.128-13.382-6.383-13.276-6.838-13.088-7.068-12.994-7.295-12.874-7.67-12.739-8.1-12.537-8.3-12.445-8.715-12.256-8.984-12.151-9.319-11.935-9.6-11.894-10.019-11.707-10.458-11.545-10.527-13.008-12.673-12.431-12.792-11.841-12.915-11.317-13.141-10.821-13.29-10.3-13.437-9.843-13.665-9.305-13.8-8.878-13.973-8.368-14.12-7.979-14.229-7.483-14.522-7.068-14.6-6.65-14.792-6.263-14.912-5.874-15.167-5.471-15.247-5.093-15.4-4.775-15.661-4.318-15.649-4-15.932-3.608-16.078-3.34-16.132-3.018-16.386-2.669-16.455-2.373-16.6-2.091-16.75-1.744-16.937-1.528-17.03-1.234-17.138-.951-17.3-.643-15.957,1.139-21.724,2.079-22.9,2.8-22.636,3.553-22.6,4.25-22.434,5.028-22.34,5.74-22.072,6.383-22.072,7.109-21.725,7.75-21.7,8.395-21.362,9.025-21.268,9.654-20.866,10.233-20.718,10.835-20.463,11.317-20.2,11.935-19.915,12.472-19.6,12.982-19.3,13.49-19.042,13.892-18.681,14.441-18.385,14.9-17.873,15.22-17.622,15.757-17.218,16.065-16.816,16.479-16.441,16.791-15.971,17.218-15.583,17.459-15.086,17.769-14.616,18.063-14.216,13.49-10.084,13.745-9.923,13.892-9.562,14.188-9.413,14.28-9.1,14.469-8.837,14.724-8.65,14.792-8.354,15-8.046,15.167-7.778,15.286-7.617,15.4-7.307,15.583-7.054,15.689-6.879,15.863-6.572,15.918-6.328,16.024-6.154,16.212-5.846,16.212-5.593,16.375-5.379,16.412-5.31,16.522-4.854,16.494-4.681,16.6-4.451,16.72-4.265,16.736-4.01,16.79-3.8,16.828-3.528L2356.43,188l16.777-3.1,16.963-2.938,16.857-2.749,10.407-1.5,10.406-1.4,10.433-1.247,10.354-1.153,10.231-.951,10.245-.926,10.192-.684,10.072-.483,9.911-.308,9.829-.174,9.723.067,9.548.243,9.279.43,9.253.737,8.917.777,8.689,1.059,8.517,1.261,8.18,1.528,7.952,1.677,7.644,1.984,7.336,2.171,7.011,2.253,6.664,2.749,6.342,2.722,5.967,3.018,5.618,3.152,5.393,3.473,4.9,3.528,4.612,3.767,4.251,3.971,3.955,4.212,2.026,2.4,1.757,3.473,2.842,6.115,2.387,6.022,2.039,5.791,1.716,5.646,1.312,5.5.94,5.258.657,5.094.335,5v4.867l-.2,4.628-.563,4.653-.9,4.585-1.179,4.707-1.474,4.506-1.877,4.626-2.212,4.681-2.63,4.626-2.949,4.881-3.475,4.815-3.9,4.934-4.385,4.975-4.813,5.122-5.405,5.134-5.806,5.1-6.464,5.191-6.948,5.23-7.456,5.2-8.085,5.2-8.542,5.31-9.119,5.15-9.856,5.377-9.374,4.814-9.427,4.653-9.4,4.64-9.454,4.64-9.466,4.25-9.388,4.332-9.509,4.089-9.44,4.01-9.507,3.969-9.44,3.836-9.482,3.648-9.495,3.593-9.533,3.579-9.48,3.42-9.55,3.271-9.507,3.3-9.509,3.245-9.587,3.112-9.48,3.1-9.588,2.9-9.613,2.883-9.588,2.882-9.562,2.777-9.6,2.734L2339,469.4l-9.615,2.6-9.709,2.616-9.586,2.573-9.67,2.483-9.721,2.494-9.67,2.52-9.533,2.3-5.981,1.474-7,1.743-8.715,2.883-10.474,5.163-10.915,9.146-8.637,12.913-4.33,14.657-.765,14.12,1.059,9.95,2.065,8.811,2.884,8.032,3.406,7.55,3.781,6.973,4.116,6.558,4.438,6.209,4.56,5.791,4.76,5.526,4.814,5.122,4.907,4.881,4.869,4.438,4.948,4.158,4.881,3.887,4.909,3.406,4.854,3.165Zm759.521,360.082,13.611-11.949,13.679-11.935,7.148-6.289,7.135-6.128,7.187-6.169,7.134-6.14,7.268-6.075,7.148-6.117,7.187-5.94,7.2-5.928,7.242-5.9,7.228-5.86,7.175-5.767,7.24-5.779,7.187-5.659,7.15-5.754,7.134-5.5,7.228-5.632,7.148-5.485,7.121-5.363,7.122-5.419,7.04-5.336,7.135-5.191,7.026-5.256,7.026-5.03,6.96-5.108,6.974-5.083,6.946-4.8,6.866-4.909,6.893-4.826,6.813-4.628,6.785-4.693,6.76-4.585,6.813-4.465,5.552-3.728,5.63-3.675,5.834-3.647,5.952-3.581,6.128-3.594,6.2-3.473,6.277-3.406,6.477-3.353,6.556-3.152,6.705-3.071,6.838-2.855,6.919-2.616,7.081-2.426,7.268-2.2,7.3-1.945,7.548-1.636,7.617-1.369,7.738-.939,7.885-.616,7.979-.12,8.1.322,8.14.739,8.219,1.312,8.154,1.945,8.195,2.361,8.072,3.043,8.019,3.594,7.885,4.144,7.724,4.814,7.522,5.379,7.309,5.832,9.4,8.582,14.871,21.334,4.2,5.993,12.565,18.024,3.755,5.432,3.392,4.467,2.428,2.655,1.93,1.785,1.314.884.871.443.631.243.576.188,1.194.106h.94l1.463-.106,1.9-.257,2.332-.416,2.763-.643,3.1-.939,3.5-1.1,3.769-1.341,4.157-1.461,4.344-1.7,4.654-1.743,4.975-1.985,5.163-1.916,5.471-2.038,5.86-1.932,5.591-1.822,3.46-1.059,3.165-1.006,3.273-1.047,6.424-2.077,3.62-1.22,3.391-1.153,3.567-1.22,3.594-1.208,3.487-1.165,3.661-1.289,3.662-1.192,3.726-1.289,3.728-1.353,3.767-1.248,3.863-1.353,8.866-2.979,8.93-2.99,9.186-3.005,9.281-2.91,9.413-2.855,9.533-2.777,9.6-2.655,9.79-2.5,9.8-2.387,9.9-2.118,9.976-1.891,10-1.569,10.166-1.408,10.19-.992,10.152-.631,10.27-.321,10.354.133,10.3.671,10.284,1.139,10.378,1.583,10.327,2.32,10.19,2.91,10.072,3.608,9.964,4.3,9.87,5,9.48,5.915,9.2,6.516,8.931,7.417,8.434,8.113,8.086,8.768,7.522,9.615,5.54,7.911,1.836,2.2.71.7,5.552-1.729,9.788-3.218,9.748-3.473,9.858-3.783,9.8-3.834,9.9-4,9.9-4.291,10.031-4.263,9.962-4.373,10.1-4.52,10.192-4.4,10.339-4.438,10.311-4.491,10.487-4.32,10.594-4.2,10.715-4.144,10.835-3.9,11.036-3.712,11.17-3.461,11.346-3.191,11.545-2.922,11.666-2.534,11.962-2.106,12.055-1.61,12.325-1.234L4269.8,775l12.647-.053,12.886.549,13.074,1.3,13.222,1.863,13.358,2.575,13.716,3.42,12.337,3.9,12.362,4.934,12.11,6.248,11.6,7.858,10.9,9.668,9.521,11.868,7.563,13.839,4.64,14.5,1.689,9.509.978,8.407.443,8.38-.162,8.287-.469,8.221-.939,8.044-1.355,7.911-1.663,7.793-2,7.738-2.282,7.483-2.467,7.348-2.736,7.389-2.91,7.173-3,7.081-3.3,6.948-3.311,6.8-3.42,6.824-3.539,6.652-3.6,6.5-3.673,6.328-3.6,6.342-3.62,6.142-3.621,6.048-3.607,5.9-3.487,5.859-3.473,5.581-3.392,5.565-3.167,5.258-3.11,5.189-2.883,4.948-2.816,4.814-2.657,4.667-3.9,7.334-4.1,7.617-4.062,7.846-3.928,7.952-3.726,7.993-3.218,7.833-2.763,7.615-2.132,7.336-1.569,6.932-.9,6.076-.255,5.565.389,4.573.886,3.955,1.206,3.354,1.851,3.151,2.345,2.91,1.675,1.542,1.932,1.1,3.057,1.006,4.412.816,5.766.243,6.907-.482,7.9-1.3,8.5-2.171,9.04-2.991,9.333-3.822,9.387-4.7,9.251-5.324,9.013-5.752,8.583-6.438,7.952-6.8,7.6-7.309,4.734-5.122,5.15-5.579,5.042-5.929,5.122-6.2,5.108-6.383,5.15-6.6,5.016-6.879,5.122-7.188,5.069-7.228,5-7.617,5-7.911,4.881-8.044,4.883-8.221,4.8-8.595,4.773-8.782,4.747-9.054,4.667-9.146,4.695-9.131,4.693-8.93,4.734-8.958,4.695-8.837,4.814-8.717,4.919-8.689,5.03-8.65,5.189-8.664,5.391-8.662,5.658-8.623,5.806-8.636,6.089-8.65,6.452-8.729,6.8-8.744,7.04-8.715,5.069-6.236,5.177-5.993,5.245-6.115,5.4-6.154,5.457-6.075,5.618-6.142,5.7-6.154,5.779-6.034,5.966-6.022,6.075-6.048,6.036-5.887,6.262-5.86,6.25-5.791,6.424-5.779,6.475-5.593,6.532-5.485,6.625-5.457,6.813-5.31,6.824-5.136,6.934-4.975,6.987-4.934,7.1-4.626,7.241-4.56,7.214-4.344,7.333-4.2,7.43-3.955,7.55-3.663,7.576-3.526,7.736-3.152,7.833-2.977,7.817-2.749,8.678-2.575,14.39-3.1,15.661-1.716,15.957-.257,16.252,1.061,16.306,2.386,16.253,3.662L4927.356,720l15.743,6.424,15.167,8.044,14.362,9.737L4985.85,755.9l11.641,13.892,9.387,16.039,6.5,18.116,2.83,19.673-1.019,20.089-3.634,16.855-5.351,15.6-6.907,14.7L4991.1,904.71l-9.1,13.288-9.884,12.459-10.554,11.935-11.037,11.329-11.358,10.862-11.627,10.152-11.545,9.723-11.5,9.1-11.331,8.65-10.835,7.911-10.284,7.362-9.642,6.758-4.681,3.218-4.813,3.312-4.854,3.218-4.9,3.179-4.9,3.152-4.961,3.165-5.016,3.124-5.056,3.167-5.083,3.1-5.163,3.029-5.122,3.112-5.231,3.124-5.31,3.03-5.269,3.044-5.31,2.977-5.405,3.043-5.4,3.005-5.457,2.963-5.566,2.991-5.511,3.03-5.605,2.963-5.607,2.951-5.63,2.938-5.673,2.977-5.754,3-5.767,2.977-5.806,3.02-5.875,2.869-5.914,2.949-5.941,2.979-5.994,2.963-6.127,2.991-8.624,4.13-9.025,4.212-9.077,4.332L4654,1138.8l-8.729,4.465-8.354,4.573-7.683,4.652-6.893,4.828-5.86,4.759-4.76,4.56-3.58,4.332-2.455,3.9-1.543,3.579-.857,3.461-.216,4.024.6,5.3.4,1.463.308.671.121.2.161.175.7.43,1.49.79,2.467.885,3.634.926,4.721.737,5.565.363h6.371l7.081-.363,7.709-.737,8.1-1.1,8.583-1.5,8.864-1.851,9-1.984,9.172-2.347,9.227-2.6,9.307-2.734,9.187-2.883,9.119-2.9,8.809-3.1,8.716-3.057,8.3-3.1,8.021-3.005,7.617-2.855,7.122-2.8,6.638-2.628,6.063-2.414,5.47-2.24,11.009-4.41,6.262-2.561,6.2-2.548,6.21-2.6,6.2-2.708,6.235-2.722,6.222-2.749,6.236-2.844,6.291-2.83,6.2-2.842,6.236-2.924,6.209-2.977,6.262-3.057,6.25-3.124,6.236-3.03,6.3-3.153,6.2-3.179,6.263-3.179,6.25-3.285,6.276-3.326,6.262-3.353,6.264-3.34,6.222-3.42,6.291-3.432,6.3-3.473,6.209-3.581,6.289-3.675,6.3-3.514,6.33-3.661,6.2-3.7,6.342-3.7,6.33-3.793,5.539-3.285,5.456-3.273,5.552-3.34,5.525-3.392,5.538-3.271,5.579-3.42,5.525-3.273,5.593-3.338,5.579-3.354,5.6-3.406,5.485-3.377,5.579-3.406,5.552-3.34,5.525-3.42,5.593-3.392,5.457-3.406,5.523-3.473,5.5-3.406,5.432-3.432,5.483-3.475,5.432-3.526,5.393-3.406,5.35-3.528,5.442-3.473,5.312-3.528,5.269-3.528,5.256-3.528,5.217-3.553,5.218-3.528,5.189-3.539,5.109-3.581,4.973-3.593,6.425-4.626,6.313-4.679,6.2-4.76,6.1-4.934,6.075-4.934,6.021-5.03,5.9-5.256,5.82-5.31,5.818-5.35,5.673-5.485,5.593-5.618,5.578-5.754,5.485-5.805,5.377-5.887,5.258-6.089,5.189-5.981,4.358-5.432,4.251-5.579,4.25-5.942,4.265-6.181,4.33-6.33,4.426-6.65,4.505-6.758,4.694-6.987,4.841-7,5.043-7.159,5.336-7.174,5.658-7.173,6.036-7.068,6.45-7,6.893-6.865,7.309-6.611,6.638-5.2,6.893-5.07,7.187-4.693,7.536-4.332,7.9-3.957,8.4-3.418,8.728-2.777,9.281-2.092,9.694-1.059h10.137l10.395,1.367,10.378,2.883,10.137,4.424,9.482,5.914,8.7,7.256,7.16,7.856,3.312,4.25,2.7,3.461,2.657,3.418,2.6,3.475,2.44,3.392,2.521,3.473.775.859,1.006.616,1.744.684,1.273.308h1.369l2.373-.135,4.1-1.045,7.335-2.722,6.812-2.736,7.336-3,7.429-2.924,7.456-2.844,7.508-2.855,7.509-2.775,7.658-2.657,7.683-2.5,7.711-2.506,7.75-2.322,7.819-2.32,7.952-2,7.911-2.024,8.046-1.743,8.031-1.663,8.328-1.5,12.27-1.771,12.056-1.167,11.666-.577,11.317-.081,10.956.524,10.647,1.165,10.259,1.865,10.03,2.412,9.588,3.218,9.227,3.822,8.742,4.654,8.233,5.365,7.7,6.2,6.879,6.824,6.289,7.536,5.393,8.1,4.532,8.595,3.58,9.091,2.722,9.28,1.785,9.454.9,9.641.187,9.668-.6,9.829-1.34,9.762-1.945,9.829-2.736,9.856-3.216,9.911-3.93,9.95-4.506,9.911-5,9.99-5.687,9.976-6.034,9.829-6.5,10.031-6.222,9.7-6.116,9.668-6.117,9.627-5.914,9.549-5.942,9.641-5.86,9.48-5.791,9.521-5.7,9.48-5.646,9.44-5.618,9.454-5.524,9.413-5.5,9.468-5.4,9.346-5.391,9.388-5.391,9.548-2.4,4.212-2.614,4.438-2.818,4.654-2.855,4.693-3.005,4.881-3.083,4.9-3.1,5.191-3.083,5.122-3.206,5.23-3.083,5.364-3.071,5.377-3,5.393-2.991,5.377-2.763,5.391-2.643,5.31-2.575,5.364-2.265,5.163-2.093,5-1.837,4.948-1.555,4.681-1.393,4.451-1.047,4.171-.725,3.85-.563,3.487-.176,3.1v2.547l.106,2.106.322,1.675.308,1.22.335.94.363.577.28.416,3.432,3.714,3.112,2.467,3.152,1.757,3.808,1.355,4.573.845,5.619.255,6.745-.43,7.63-1.179,8.595-2.106,9.266-2.963,9.858-3.889,10.433-4.653,10.66-5.444,10.97-6.14,11.09-6.786,11.263-7.281,11.226-7.738,11.143-8.113,11.036-8.462,10.848-8.554,10.514-8.715,10.191-8.852,9.8-8.837,9.4-8.609,8.852-8.489,8.2-8.207,7.658-7.817,6.853-7.348,6.1-6.786,5.175-6.075,4.279-5.31,3.271-4.346,7.066-10.191,7.027-10.474,6.865-10.782,6.732-10.968,6.705-11.2,6.423-11.4,6.371-11.56,6.3-11.707,6.116-11.882,6.034-11.921,5.955-12.123,5.873-12.217,5.687-12.243,5.645-12.364,5.566-12.431,5.483-12.551,5.419-12.5,5.3-12.457,5.189-12.539,5.244-12.6,5.071-12.445,5.1-12.525,4.987-12.417,5.042-12.31,4.909-12.3,4.883-12.256,4.908-12.125,4.868-11.921,4.869-11.868,4.854-11.692,4.839-11.586L6059.4,678l1.338-3.473.658-2.186.336-1.9.188-1.675-.069-1.475-.188-1.353-.334-1.249-.43-1.18-.6-1.273-.8-1.261-1.114-1.275-1.247-1.422-1.716-1.4-2.106-1.474-2.469-1.381-3.244-1.514-6.062-2.332-7.173-2.736-7.187-2.669-7.094-2.763-7.122-2.681-7.08-2.722-7.081-2.749-7.066-2.681-7-2.68-7.026-2.722-7.026-2.71-7-2.72-6.987-2.6-7-2.763-6.96-2.681-7-2.669-6.946-2.681-7.014-2.681-7-2.6-7-2.749-6.974-2.681-6.987-2.736-7.027-2.669-7-2.763-7.081-2.669-1.461-.551-19.728-7.5-7.107-2.72-24.583-9.454-16.492-10.166-12.284-18.034-4.13-18.385.59-15.528,2.549-12.806,3.218-10.7,3.043-8.715,2.428-6.826,1.835-5.471,2.173-5.9,2.253-5.928,2.454-5.832,2.6-5.889,2.761-5.913,2.856-6.075,3.286-6.356,4.157-7.429,5.323-8.032,6.72-8.166,8.688-7.925,10.89-6.76,12.886-4.679,14.027-1.812,12.151.885,8.272,1.288,7.109,1.18,7.081,1.208,7.026,1.22,7.093,1.341,7,1.234,7.053,1.261,7.053,1.394,7.026,1.289,6.933,1.381,7.066,1.288,6.894,1.353,6.986,1.4,6.933,1.408,6.934,1.194,6.905,1.341,6.88,1.341,6.865,1.261,6.8,1.3,6.866,1.22,6.758,1.167,6.76,1.139,6.691,1.033,6.744,1.059,6.64,1.006,6.677.926,6.639.912,6.556.738,6.544.79,6.5.657,6.477.616,6.33.549,5.725.375,5.406.175,5.23.12,4.934-.188,4.722-.228,4.41-.43,4.089-.577,3.85-.657,2.749-.592,2.708-.857,2.562-.859,2.469-1.045,2.426-1.126,2.361-1.3,2.293-1.341,2.28-1.555,2.171-1.675,2.24-1.932,2.252-2.147,2.132-2.185,2.211-2.561,2.106-2.722,2.159-3.057,1.9-2.91,3.447-6.167,3.982-7.242,3.983-7.295,3.969-7.135,3.983-7.121,3.954-7.148,3.93-6.934,3.9-6.934,3.836-6.932,3.928-6.934,3.849-6.852,3.85-6.879,3.849-6.866,3.821-6.744,3.81-6.787,3.875-6.813,3.836-6.826,3.821-6.744,3.811-6.826,7.106-12.725,4.412-7.711,3.849-6.919,3.822-6.879,3.887-6.866,3.89-7,8.662-15.514,7.148-12.874,3.983-7.173,5.177-9.4,7.444-10.152,8.676-9.011,9.506-7.509,10.339-6.075,10.876-4.507,11.519-2.869,11.866-1.139,12.242.979,12.162,3.165,11.748,5.579,10.527,8.219,8.756,10.407,6.464,12.07,4.077,13.021,1.6,13.745-.441,15.9-3.244,11.949-2.442,8.087-2.547,7.938-2.708,7.911-2.844,7.98-2.992,7.8-3.1,7.791-3.218,7.658-3.353,7.752-3.405,7.536-3.553,7.548-3.593,7.55-3.675,7.483-3.782,7.523-3.822,7.375-3.836,7.415-3.928,7.442-3.93,7.215L6388,346.871l-3.943,7.242-4.061,7.309L6375.9,368.7l-4.053,7.283-4.061,7.254-4.118,7.189-4,7.24-4.063,7.054-4.009,7.228-4.023,7.295-3.888,7.16-3.9,7.187-2.671,5.07-1.312,3.593-1.41,4.546-.924,3.822-.5,3.005v.376l2.708.522,6.141,1.463,6.089,1.422,6.142,1.435,6.181,1.488,6.1,1.475,6.075,1.312,6.128,1.41,6.208,1.474,6.168,1.381,6.063,1.463,6.14,1.449,6.154,1.394,6.168,1.422,6.034,1.4,6.142,1.463,6.155,1.42,6.141,1.381,6.182,1.41,6.1,1.461,6.183,1.4,6.034,1.474,6.088,1.381,6.181,1.4,6.183,1.474,6.155,1.381,6.075,1.475,6.128,1.42,6.167,1.369,6.1,1.422,19.336,4.571,14.833,4.318,15.273,7.484,14.053,12.323,9.762,18.132,1.636,20.4-5.134,17.9-8.6,14.5-9.976,11.746-6.705,6.893-6.3,6.142-6.464,6.02-6.571,5.848-6.691,5.591-6.839,5.365-6.879,5.379-7.052,5.028-7.081,4.828-7.31,4.761-7.336,4.438-7.4,4.344-7.577,4.13-7.644,3.956-7.724,3.767-7.805,3.594-7.925,3.461-7.966,3.23-8.113,3.044-8.181,2.951-8.3,2.708-8.274,2.628-8.448,2.44L6385.649,710l-8.583,2.106-8.609,1.973-8.756,1.812-8.8,1.647-8.864,1.6-8.932,1.327-9.039,1.3-9.654,1.153-7.283.522-6.41.43-12.673.926-6.383.482-6.382.43-6.356.5-6.531.43-6.611.416-6.4.255-6.047.161-5.579.243-5.175.308-4.707.241-4.279.443-3.726.6-3.3.616-2.816.669-2.575.885-2.32.992-2.106,1.1-2.12,1.42-2.186,1.677L6200.027,739l-3.675,4-3.608,4.681-3.648,5.189-3.487,5.646-3.271,5.993-3.165,6.2-2.883,6.4-2.735,6.585-3.406,8.958-7.188,18.814-3.5,9.387-10.715,28.241-3.538,9.44-10.782,28.2-3.526,9.441-3.6,9.374-3.526,9.346-3.593,9.48-3.555,9.374-10.782,28.229-3.528,9.452-3.539,9.362-3.567,9.387-3.565,9.454-3.554,9.362-10.728,28.267-3.54,9.387-3.565,9.427-3.593,9.374-3.555,9.36-3.11,8.113-1.4,5.07-1.81,6.181-1.689,6.236-1.569,6.089-1.569,6.1-1.341,6.126-1.34,6.1-1.261,5.967-1.154,6.007-1.032,5.928-.9,5.967-.766,5.9-.765,5.9-.578,5.807-.417,5.766-.293,5.5-.363,16.561.726,15.718,1.608,15.341,2.6,15.045,3.365,14.484,4.264,14.2,5.136,13.731,5.832,13.423,6.679,13.074,7.388,12.606,8.045,12.256,8.811,11.868,9.427,11.384,10.029,11.078,10.608,10.472,11.278,10.072,11.68,9.587,12.3,9.16,12.659,8.595,13.074,8.1,13.437,7.484,13.771,7,14.106,6.3,14.375,5.942,14.6,5.136,14.684,4.571,14.912,4.038,14.966,3.338,15.019,2.708,14.965,2.038,14.978,1.422,14.859.67h13.933l14.294-.6,14.7-1.488,15.006-2.038,15.367-2.708,15.623-3.338,15.9-3.957,16.094-4.452,16.239-5.042,16.428-5.485,16.587-6.006,16.643-6.491,16.7-6.746,16.667-7.173,16.682-7.55,16.708-7.8,16.655-8.032,16.587-8.354,16.32-8.462,16.374-8.664,16.078-8.676,15.957-8.852,15.716-8.838,15.49-8.9,15.166-8.8,14.924-8.77,14.563-8.595,14.268-8.582,13.906-8.328,13.5-8.168,13.088-7.856,12.258-7.43,7.536-4.8,10.164-5.379,12.725-4.438,16.708-1.514,18.9,5.216,15.192,12.431,9.321,15.288,5.593,16.936,1,8.342.565,4.573.563,4.667.629,4.571.5,4.64.563,4.571,1.246,10.137.819,10.956-.643,11.88-2.388,11.694-4.225,10.995-5.565,9.737-6.168,8.342-6.571,7.348-6.825,6.932-4.855,4.52-5.015,4.4-5.108,4.2-5.162,3.9-5.177,3.647-5.3,3.54-5.271,3.285-5.295,3.152-5.338,3.124-5.3,2.91-5.3,2.855-5.31,2.789-5.4,2.777-5.283,2.708-5.269,2.681-5.392,2.83-14.066,7.052-14.134,7.121-14.282,6.934-14.215,6.826-14.228,6.824-14.255,6.517-14.294,6.558-14.294,6.354-14.308,6.264-14.363,6.167-14.349,5.954-14.375,5.832-14.415,5.74-14.415,5.673-14.469,5.418-14.483,5.352-14.549,5.148-14.51,5-14.522,4.948-14.6,4.693-14.563,4.626-14.643,4.373-14.645,4.277-14.724,4.13-14.629,3.956-14.738,3.767-14.778,3.594-14.739,3.528-14.816,3.326L6408,1634.32l-14.883,2.936-15.475,2.777-8.205,1.22-7.658.926-7.59.751-7.509.684-7.536.616-7.521.43-7.442.308-7.509.255-7.4.12-7.375-.12-7.36-.188-7.268-.243-7.309-.441-7.242-.6-7.256-.591-7.147-.8-7.107-.965-7.16-1.045-7.093-1.141-7.054-1.274-6.933-1.422-7.012-1.5-7-1.73-6.76-1.81-6.9-1.891-6.813-2.065-6.772-2.146-6.639-2.294-6.785-2.481-6.613-2.534-6.638-2.669-6.717-2.951-14.712-6.879-14.441-7.415-14.08-8.032-13.691-8.6-13.29-8.984-12.886-9.587-12.566-9.976-12.149-10.435-11.735-10.646-11.371-11.266-11.01-11.5-10.62-11.8-10.352-12.123-10-12.431-9.586-12.673-9.252-12.847-9.079-13.155-8.65-13.249-8.366-13.478-8.032-13.623-7.751-13.772-7.537-13.867-7.133-14.027-6.974-14-6.611-14.149-6.356-14.106-6.236-14.106-5.846-14.175-5.659-14.053-5.391-14.108-5.07-14.027-2.186-6.075-.241.188-5.311,3.218-6.289,4.451-6.948,5.511-7.309,6.236-7.562,6.5-7.75,6.813-8.021,6.732-8.287,6.558-8.153,5.713-8.327,5.189-7.724,4.626-7.646,4.465-7.6,4.332-7.67,4.063-7.536,3.969-7.537,3.769-7.523,3.593-7.471,3.473-7.456,3.34-7.415,3.1-7.389,2.922-7.429,2.869-7.346,2.616-7.256,2.547-7.28,2.332-7.242,2.173-7.215,2.092-7.24,1.812-7.122,1.836-7.122,1.555-7.147,1.474-7.1,1.422-7,1.073-7.026,1.114-6.934.965-6.974.751-6.932.643-6.893.483-6.787.43-6.787.306-8.46.12-7.577-.669-5.995-.671-5.86-.776-5.618-.992-5.552-1.033-5.351-1.289-5.324-1.449-5.122-1.649-5-1.743-4.881-2.038-4.842-2.185-4.652-2.426-4.534-2.63-4.358-2.842-4.211-3.179-4.171-3.487-6.276-6.128-5.779-6.826-5-7.36-4.089-7.911-3.071-8.168-1.93-8.474-.871-8.342.041-8.032.831-7.55,1.449-7.173,1.9-6.652,2.281-6.167,2.453-5.768,2.535-5.483,2.708-5.136,2.6-4.708,4.346-7.8,4.224-7.683,4.185-7.6,4-7.672,4.116-7.63,4.024-7.564,4.01-7.658,3.928-7.617,3.85-7.615,3.836-7.536,3.781-7.672,3.7-7.55,3.593-7.5,3.58-7.6,3.541-7.55,3.5-7.67,2.267-5.07,2.5-5.148,2.429-5.258,4.907-10.338,2.63-5.54,2.494-5.391,2.508-5.391,2.5-5.5,2.359-5.405,2.455-5.418,2.279-5.5,2.2-5.405,2.077-5.432,2.08-5.324,1.8-5.258,1.689-5.377,1.689-5.23,1.382-5.044,1.273-5.083,1.1-4.934.883-4.84.727-4.7.535-4.506.336-4.465.106-4.2-.082-4.089-.214-3.889-.455-3.714-.657-3.661-.818-3.392-.886-2.979-2.186-5.5-2.306-4.451-2.429-3.714-2.6-3.167-2.816-2.789-3.045-2.455-3.365-2.051-3.726-1.93-4.117-1.53-4.547-1.367-4.974-.965-5.392-.643-5.713-.39-5.966.069-6.3.441-6.438.765-6.638,1.234-6.719,1.649-6.717,1.822-6.691,2.253-6.625,2.616-6.477,2.91-6.289,3.1-6.115,3.446-5.673,3.528-5.457,3.781-5.07,3.822-4.572,3.887-4.158,3.969-3.539,3.9-3.071,3.783-2.708,3.955-3.607,6.075-4.291,7.121-4.224,7.174-4.292,7.148-4.25,7.187-4.277,7.174-4.265,7.134-4.263,7.174-4.212,7.107-4.25,7.16-4.345,7.107-4.2,7.187-4.3,7.187-4.2,7.054-4.33,7.228-4.211,7.16-4.306,7.187-4.236,7.107-4.277,7.121-4.265,7.173-4.236,7.187-4.263,7.081-4.291,7.187-4.265,7.121-4.236,7.187-4.265,7.109-4.236,7.134-4.277,7.187-4.277,7.187-8.476,14.255-4.359,7.242-5.579,9.278-6.315,9.4-6.731,9.146-7.014,8.715-7.456,8.3-7.8,7.9-8.167,7.43-8.529,7.052-8.891,6.558-9.252,6.2-9.506,5.646-9.884,5.281-10.152,4.722-10.393,4.332L5147.7,1295.9l-16,4.883-24.3-.724-19.728-4.573-18.667-10.807-13.207-17.446-5.231-19.5.5-17.432,3.138-15.274,5.338-15.6,5.364-10.1,4.05-7.6,4.157-7.55,4.13-7.6,4.226-7.631,4.224-7.6,4.265-7.617,4.333-7.6,4.385-7.672,4.479-7.6,4.532-7.711,4.587-7.6,4.625-7.738.9-1.435-2.8,1.757-12.847,8.032-12.94,7.846-12.847,8.046-12.954,7.993L5050.453,1138l-12.979,7.911-13,7.925-13.021,7.791-13.074,7.791-13.157,7.793-13.115,7.617-13.221,7.562-13.276,7.536-13.3,7.43L4919,1214.653l-13.37,7.214-13.478,7.174-13.5,6.946-13.6,6.866-13.639,6.813-13.692,6.544-13.8,6.438L4810.052,1269l-13.865,6.142-14.055,5.9-14.015,5.846-14.187,5.538-14.294,5.35-16,5.875-12.4,2.91-10.421,2.184-10.378,2.012-10.152,1.7-10.017,1.4-9.843,1.114-9.683.831-9.507.551-9.361.241h-9.2l-9.105-.308-8.9-.576-8.744-.926-8.635-1.289-8.462-1.474-8.205-1.863-8.154-2.159-7.925-2.481-7.846-2.855-7.6-3.1-7.389-3.406-7.16-3.836-7.026-4.077-6.691-4.318-6.5-4.84-6.33-4.922-6.089-5.281-5.685-5.566-5.593-5.726-5.269-6.142-.349-.43-1.676.257-2.63.537-3.2,1.045-.8.257-5.457,3.165-8.609,4.934-8.65,4.773-8.583,4.773-8.622,4.64-8.637,4.438-8.649,4.452-8.636,4.224-8.595,4.279-8.677,4.2-8.664,4.01-8.69,3.969-8.6,3.85-8.69,3.767-8.649,3.648-8.621,3.594-8.718,3.553-8.662,3.34-8.677,3.3-8.69,3.2-8.638,3.1-8.728,2.991-8.717,2.937-8.607,2.789-8.664,2.734-8.743,2.656-8.728,2.469-8.664,2.426-8.756,2.4-8.716,2.24-8.7,2.146L4191,1364.54l-15.367,2.065-14.818.416-14.388-1.072-13.906-2.832-13.221-4.6-12.312-6.532-11.142-8.529-9.427-10.406-7.522-12.109-5.109-13.208-2.6-13.892-.321-14.066,1.836-14.014,3.767-13.945,5.607-13.532,6.8-12.564,5.644-9.227,5.15-8.462,5.176-8.342,5.163-8.462,5.134-8.327,5.1-8.407,5.122-8.288,4.975-8.354,5-8.219,4.883-8.219,4.8-8.168,4.747-8.1,4.667-8.113,4.534-7.94,4.45-7.911,4.306-7.856,4.145-7.792,4.116-7.738,3.849-7.615,3.728-7.509,3.528-7.43,3.34-7.362,3.191-7.12,3.018-7.054,2.749-6.934,2.52-6.905,2.361-6.625,2.119-6.452,1.877-6.424,1.69-6.126,1.34-5.889,1.18-5.618,1.488-9.521.738-8.087.135-6.583-.349-5.217-.684-3.8-.752-2.561-.831-1.624-.831-1.273-1.167-1.249-1.771-1.435-2.9-1.73-4.036-1.93-5.485-2.012-6.905-1.863-8.127-1.73-9.266-1.528-8.219-.9-8.007-.418-8.044.069-7.98.537-8.14,1.073-8.1,1.61-8.154,2-8.289,2.508-8.38,2.91-8.515,3.473-8.475,3.836-8.6,4.318-8.715,4.746-8.782,5.244L4046.5,967.2l-6.6,4.438-8.14,7.925L4022,989.544l-9.507,10.178-9.215,10.219-8.984,10.352-8.677,10.486-8.489,10.594-8.342,10.647-8.087,10.77-7.979,10.929-7.792,10.888-7.644,11.01-7.548,11.021-7.429,11.143-7.282,11.184-7.295,11.3-7.215,11.266-7.2,11.317-7.121,11.331-7.187,11.317-7.149,11.4-7.24,11.386-7.242,11.25-7.334,11.319-7.429,11.264-7.509,11.3-7.644,11.129-7.764,11.2-7.952,11.023-8.127,11.009-8.381,10.9-10.19,12.982-11.251,10.1-10.472,7.9-10.688,6.732-10.821,5.591-11.05,4.438-11.052,3.167-11.2,2.092-11.129.8-11-.5-10.833-1.783-10.541-3.218-10.111-4.695-9.345-6.075-8.476-7.683-7.093-9.011-5.833-10.46-5.244-16.145-1.408-16.7,2.681-15.822,5.605-13.343,6.679-10.674,6.813-8.529,6.277-6.934,5.579-6.128,5.593-6.3,5.524-6.2,5.432-6.264,5.432-6.289,5.2-6.183,5.231-6.369,5.016-6.142,4.975-6.248,4.854-6.169,4.679-6.14,4.587-6.168,4.518-6.128,4.373-6.14,4.226-6.183,4.13-6.075,3.969-6.1,3.836-5.94,3.675-6.048,3.539-5.967,3.406-5.981,3.2-5.887,3.153-5.928,2.951-5.887,2.763-5.86,2.642-5.779,2.453-5.779,2.333-5.726,2.134-5.713,2.01-5.659,1.757-5.685,1.649-5.581,1.543-5.55,2.118-8.852,1.785-8.489,1.422-8.113,1.033-7.778.482-7.242.135-6.732-.4-6.02-.778-5.432-1.125-4.761-1.5-4.185-1.822-3.712-2.293-3.475-2.883-3.406-3.7-3.271-4.681-3.353-6.262-3.528-3.244-1.557-3.514-1.18-3.487-1.1-3.593-.886-3.607-.522-3.877-.322-3.955-.067-4.118.243-4.291.508-4.612.792-4.814,1.1-5.071,1.435-5.23,1.73-5.457,2.171-5.687,2.6-5.967,2.9-6.048,3.285-6.342,3.647-6.53,4.212-6.6,4.438-6.824,4.9-7.054,5.338-7.148,5.726-7.268,6.089-7.429,6.558-7.522,6.852-7.7,7.428-7.832,7.658-7.939,8.113-8.032,8.462-8.18,8.864-7.644,8.476-5.177,6.691-11.908,15.341-6.008,7.644-5.966,7.617-5.953,7.672-5.993,7.615-5.9,7.658-6,7.6-5.952,7.616-5.952,7.672-6.007,7.67-5.887,7.55-6.008,7.631-5.9,7.709-5.981,7.617-5.952,7.6-11.976,15.288-5.9,7.617-5.967,7.67-6.007,7.55-5.873,7.723-6.036,7.617-5.9,7.617-6,7.67-5.966,7.672-5.928,7.548-5.952,7.7-6,7.6-5.94,7.685-8.784,11.25-15.408,11.761-14.363,7.926-14.978,5.283-15.3,2.575-15.286-.377-14.671-3.285-13.692-6.222-11.894-8.8-9.977-11.129-7.309-12.955-4.56-14.253-1.676-15.167,1.42-15.286,4.291-15.1,7-14.416,8.744-12.672,7.025-8.7,6.089-7.562,6.034-7.6,5.981-7.617,6.048-7.536,5.86-7.509,5.805-7.536,5.74-7.617,5.632-7.429,5.524-7.548,5.432-7.484,5.351-7.389,5.244-7.5,5-7.361,4.987-7.362,4.8-7.36,4.653-7.256,4.505-7.348,4.279-7.24,4.183-7.283,3.957-7.187,3.836-7.107,3.594-7.135,3.377-7.054,3.245-7.066,2.991-6.946,2.777-6.948,2.614-6.865,2.308-6.813,2.146-6.732,1.8-6.746,1.73-6.691,1.261-5.86,1.165-5.457.845-5.258.631-4.759.416-4.56.188-3.983v-3.877l-.242-3.593-.416-3.406-.683-3.285-.859-3.285-1.112-3.218-1.45-3.539-1.77-3.648-2.212-3.755-2.534-4.036-2.6-3.34-2.065-2.455-1.8-1.624-1.449-1.114-1.032-.615-.739-.3-.551-.188-2.185-.053-3.459.537-5.1,1.42-6.409,2.469-7.4,3.539-8.032,4.452-8.5,5.31-8.691,5.713-8.864,6.291-8.782,6.556-8.744,6.719-8.381,6.611-8.14,6.475-7.723,6.2-7.334,5.793-6.558,4.989-10.446,7.709-10.084,7.576-10.086,7.6-10.017,7.7-10.031,7.778-9.95,7.738-10.057,7.791-9.921,7.858-9.857,7.911-9.936,7.9-9.87,7.98-9.884,7.993-9.8,8.032-9.831,8.032-9.829,8.087-9.76,8.058-9.857,8.154-9.762,8.166-19.565,16.267-9.776,8.219-9.8,8.18-9.79,8.182-9.815,8.152-9.762,8.182-9.843,8.219-9.8,8.219-19.658,16.333-9.923,8.234-9.87,8.085-9.4,7.793-7.429,6.5-8.087,6.879-8.246,6.732-8.315,6.677-8.356,6.33-8.379,6.342-8.568,6.128-8.637,5.914-8.7,5.779-8.811,5.566-8.864,5.457-8.931,5.244-9.117,5-9.1,4.869-9.266,4.626-9.333,4.452-9.454,4.25-9.55,4.1-9.586,3.767-9.8,3.593-9.788,3.34-9.936,3.165-10.045,2.91-10.109,2.749-10.178,2.428-10.3,2.212-10.406,2-10.541,1.716-10.607,1.449-10.674,1.275-10.809.925-10.795.671-12.27.469-12.1.241-11.935-.133-11.908-.63-11.854-1.165-11.814-1.837-11.774-2.616-11.653-3.473-11.49-4.385-11.345-5.432-10.968-6.517-10.609-7.591-10.043-8.595-9.668-9.656-9.078-10.687-8.529-11.627-4.185-6.385-3.767-6.4-3.514-6.477-3.167-6.5-2.855-6.611-2.547-6.732-2.267-6.691-2.039-6.881-1.675-6.744-1.449-6.838-1.22-6.866-.951-6.826-.777-6.865-.484-6.907-.334-6.879-.092-6.813v-6.879l.308-6.865.349-6.852.537-6.88.751-6.744.739-6.773.964-6.813,1.047-6.813,1.167-6.758,1.326-6.719,1.313-6.744,1.422-6.746,1.6-6.691,1.5-6.732,1.649-6.625,2.281-8.972,6.115-14.845,5.432-12.537,5.632-12.4,5.791-12.123,5.954-11.935,6.222-11.747,6.356-11.519,6.585-11.384,6.677-11.1,7-10.968,7.148-10.633,7.362-10.513,7.47-10.339,7.791-10.086,7.94-9.911,8.152-9.76,8.342-9.454,8.556-9.293,8.742-9.092,8.985-8.889,9.146-8.623,9.292-8.462,9.562-8.287,9.79-8.032,10-7.925,10.2-7.617,10.354-7.5,10.609-7.242,10.741-7.107,11.035-6.852,11.119-6.625,11.962-6.813,9.36-4.626,8.931-4.142,8.944-3.971,9.053-3.767,9.064-3.461,9.158-3.23,9.146-2.91,9.213-2.816,9.2-2.308,9.2-2.171,9.2-1.785,9.238-1.422,9.187-1.165,9.092-.712,9.131-.308,9.119.055,9.052.51,9,.951,8.864,1.528,8.825,2,8.728,2.761,8.529,3.232,8.341,3.942,8.046,4.626,7.738,5.35,7.361,6.115,6.813,6.732,6.25,7.43,5.644,8.113,5,8.582,4.344,9.091,4.465,11.962,2.333,15.851,1.181,12.606.537,12.484-.069,12.3-.776,12.137L2990.629,871l-2.106,11.692-2.694,11.519L2982.6,905.4l-3.887,11.009-4.571,10.782-5.03,10.5-5.607,10.15-6.154,9.843-6.624,9.642-7.054,9.333-7.509,8.864-8.085,8.838-8.355,8.542-8.8,8.154-9.119,7.911-9.535,7.738-9.962,7.55-10.26,7.187-10.594,7.04-10.876,6.891-11.278,6.705-11.5,6.4-11.868,6.25-12.11,6.181-12.443,5.952-12.915,5.86-10.807,4.573-11.064,4.089L2745.62,1105l-10.862,3.245-10.674,2.844-10.568,2.681-10.339,2.506-10.219,2.24-9.95,2.332-9.762,2.308-9.521,2.224-9.213,2.522-8.958,2.481-8.756,2.734-8.488,3.005-8.087,3.23-11.558,5.269-10.233,5.566-8.891,5.726-7.442,5.713-6.062,5.618-4.6,5.2-3.191,4.9-2.092,4.2-.992,3.608-.389,3.2.2,3.34.857,3.85,1.983,4.571,3.447,5.658,5.338,6.45,7.7,7.5,3.7,3.165,4.143,3.191,4.212,2.9,4.226,2.561,4.3,2.426,4.387,2.079,4.4,1.812,4.532,1.661,4.534,1.408,4.681,1.073,4.693.792,4.814.684,4.909.375h5l5.1-.12,5.35-.5,10.956-1.555,11.09-2.159,11.329-2.669,11.492-3.34,11.721-3.714,11.8-4.385,12-4.881,12.135-5.5,12.284-5.832,12.459-6.424,12.523-6.866,12.674-7.295,12.86-7.738,12.833-8.168,12.968-8.529,13.023-8.864,13.128-9.266,13.235-9.6,13.208-9.882,13.357-10.219,13.316-10.38,13.423-10.647,13.463-11.023,13.49-11.021,13.518-11.251,13.555-11.453,13.557-11.692,13.584-11.627,13.519-11.761,13.717-11.868Zm1655.582-56.094-5.659,8.342-5.417,8.3-5.136,8.154-4.84,8.1-4.573,7.791-4.237,7.683-3.928,7.362-3.46,6.758,3.487-.147,4.693-.537,5.283-.871,5.793-1.194,6.263-1.649,6.543-2.051,6.934-2.332,7.066-2.736,7.323-2.977,7.4-3.273,7.509-3.579,7.576-3.7,7.563-3.971,7.456-4.061,7.47-4.13,7.348-4.332,7.081-4.305,6.972-4.41,6.76-4.373,6.438-4.332,6.167-4.332,5.769-4.075,5.391-4.024,4.946-3.888,4.52-3.593,3.916-3.218,3.379-2.977,4.934-4.76,4.8-4.828,4.626-5.028,4.358-4.934,4.063-5.122,3.781-5.191,3.42-5.163,3.139-5.177,2.775-5.189,2.4-5.1,2.052-5.122,1.7-5.056,1.275-4.987.951-4.989.551-4.934.161-4.277-.336-5.834-.963-3.767-1.1-2.455-.978-1.449-1.139-1.033-1.8-1.047-3.112-.951-5.7-.739-5.833-.067-6.638.5-6.772,1.087-6.893,1.569-7.04,2.253-7.187,2.83-7.228,3.271-7.362,3.971-7.5,4.371-7.5,4.975-7.47,5.311-7.469,5.9-7.429,6.356L4755,876.782l-7.269,6.934-7.172,7.309-7,7.644-6.852,7.778-6.76,8.019-6.5,8.1-6.342,8.3-6.115,8.342-5.942,8.342ZM2653.8,978.714l-6.316,9.858-5.873,10.123-5.511,10.272-5.191,10.5-1.555,3.446,1.984-.041,4.171-.243,4.424-.615,4.787-.671,5.109-.939,5.256-1.061,5.405-1.288,5.617-1.528,5.74-1.583,5.766-1.636,5.834-1.837,5.7-1.877,5.754-1.945,5.659-2.024,5.552-2.051,5.442-2.026,5.218-2.051,5.056-2.092,4.96-2,4.534-1.971,4.385-1.8,4.024-1.785,3.7-1.636,3.285-1.543,2.777-1.287,7.562-3.648,7.095-3.646,6.932-3.889,6.691-4.036,6.544-4.2,6.25-4.371,6.115-4.614,5.927-4.759,5.673-4.934,5.432-5.258,5.35-5.336,5.042-5.74,4.989-5.9,4.681-6.154,4.571-6.452,3.42-5.377,2.694-5.875,2.159-6.115,1.341-5.405.669-4.814.069-4.089-.377-3.514-.67-3-.991-2.575-1.194-2.212-1.528-2.065-1.812-1.906-2.239-1.8-2.763-1.729-3.353-1.6-3.942-1.261-5.071-1.045-4.479-.6-4.612-.361-4.479-.067-4.13.241-4.171.537-4.038.684-4.01.914-4.075,1.151-4.117,1.583-4.212,1.757-4.359,1.973-4.4,2.294-4.638,2.587-4.761,2.844-4.975,3.1-4.975,3.285-11.909,8.287-11.278,8.529-10.66,8.6-10.137,8.54-9.574,8.8-8.97,9.027-8.542,9.077-8.073,9.16-7.562,9.413-7.135,9.507-6.691,9.789ZM920.906,1369.29c-25.68,1.061-40.66-9.709-38.835-37.682,0-34.369-15.02-65.1,25.519-75.793,6.222-1.743,12.792-1.9,19.148-2.749l6.679-.992,1.6-.255-1.463-1.463-5.74-5.834c-51.6-52.927-103.686-105.159-155.125-158.156l-4.13-4.263-.965,163.106.965.053c16.065.7,32.089,1.6,48.114,2.455,41.517,10.5,38.138,102.653-5.35,113.166-95.438.563-190.837,2.212-286.34,2.481-36.421-15.274-36.3-93.8,2.359-107.869,22.7-2.428,45.232-3.42,68.109-4.25l1.837-.106.106-9.535q2.835-181.658,5.618-363.3l.2-11.129-.069-.992c-20.932-.978-41.931-1.675-62.879-2.7-32.573-14.67-32.063-111.207,10.192-120.594,86.237,1.326,172.49,1.6,258.7,2.72,40.351,13.451,42.578,99.743.845,111.25-13.182,1.647-25.545,2.294-38.605,2.789l-1.543.026v4.3l-.055,12.794L769.02,1008.3l.416-.441,6.893-6.919c49.091-49.081,98.549-97.706,147.7-146.786l3.755-3.74-1.073-.053-4.573-.322-17.794-1.473c-32.212-24.258-30.361-79.776,6.53-102.722,87.875-.776,175.763-.776,263.611-1.743,8.26,16.924,17.728,33.163,25.949,50.126,1.1,34.436-14.267,54.229-45.82,59.659-17.916.243-35.778-.159-53.64-.5l-3.446-.12h-2.91l-.147.243-3.769,3.9c-50.058,55.047-103.912,106.677-154.589,161.161l-4.373,4.667q85.972,95.966,172.037,191.8l6.436,7.228,6.531,7.3,6.544,7.295,4.277,4.746h.161l3.753.133c9.227.267,18.6.243,27.812.792,31.636-1.1,43.824,7.254,46.426,43.058-9.186,27.249-17.553,54.217-27.839,81.131q-128.434,1.307-256.972,2.573Z" transform="translate(0)" fill="#005aa7" fill-rule="evenodd"/></g></svg>